PathFileType	4	(X/Y/Z)	D:\TRACE\spotREDO_2-26-24\spot_baseline_1-v60.trc
DataRate	CameraRate	NumFrames	NumMarkers	Units	OrigDataRate	OrigDataStartFrame	OrigNumFrames
100.00	100.00	      35	9	mm	100.00	5251	      7000
Frame#	Time	front left toe			Front right toe			aft left toe			aft right toe			Arm			FL body			FR body			AL Body			AR Body			
		X1	Y1	Z1	X2	Y2	Z2	X3	Y3	Z3	X4	Y4	Z4	X5	Y5	Z5	X6	Y6	Z6	X7	Y7	Z7	X8	Y8	Z8	X9	Y9	Z9	

5251	52.500	-256.28818	16.55237	-141.29337	211.14743	87.99900	-201.20033	-245.32060	22.53959	353.44928	260.19629	26.65863	240.15147	-75.63634	806.86353	-348.26431	-158.52921	548.72192	-312.99127	-4.03087	551.65564	-335.00385	-45.18980	559.88580	563.68860	103.69664	558.07477	544.93970	
5252	52.510	-256.24625	16.52440	-141.28174	209.59360	77.57199	-199.38350	-245.28918	22.51720	353.44113	261.68729	27.14959	240.49231	-75.44398	806.72137	-347.84189	-158.16528	548.56689	-312.41437	-3.84408	551.43555	-334.67377	-44.45526	559.62897	563.84229	103.70174	558.15491	545.23767	
5253	52.520	-256.24225	16.54290	-141.29897	208.90881	67.24407	-197.42136	-245.19624	22.49816	353.47931	261.88187	27.24563	240.53815	-75.25522	806.50366	-347.60440	-158.07594	548.47968	-312.16901	-3.41046	551.29248	-334.35645	-44.05352	559.56091	564.20428	103.91191	558.12921	545.55133	
5254	52.530	-256.26569	16.56796	-141.25911	208.27179	57.47142	-196.09979	-245.17081	22.49377	353.49927	261.72638	27.21847	240.50195	-74.92822	806.36993	-347.26361	-158.04912	548.37610	-311.98013	-3.16848	551.07806	-333.89188	-44.63873	559.90900	564.96289	104.03555	558.12347	546.23120	
5255	52.540	-256.20374	16.53964	-141.25194	207.97855	47.28162	-195.60645	-245.14735	22.53273	353.49191	261.84955	27.21817	240.53627	-74.63479	806.26166	-346.91330	-157.87866	548.23267	-311.57315	-2.97864	550.84979	-333.40100	-43.64938	559.47095	564.79822	104.33215	557.99121	546.63550	
5256	52.550	-256.21759	16.56244	-141.23596	207.49979	37.10434	-195.01729	-245.20988	22.55202	353.46509	261.88193	27.14992	240.54630	-74.32333	806.12610	-346.56589	-157.64902	548.15198	-311.07309	-2.91848	550.78632	-333.11896	-43.13570	559.16760	564.78699	104.47679	557.90100	546.84106	
5257	52.560	-256.23093	16.52546	-141.21165	207.85333	27.41483	-194.33868	-245.18138	22.54556	353.51306	261.76596	27.08162	240.52104	-74.07360	806.15009	-346.25021	-157.29196	547.98871	-310.51553	-2.74522	550.79102	-332.74130	-43.02140	559.20184	565.20813	104.69241	557.91840	547.10938	
5258	52.570	-256.18051	16.47329	-141.20773	207.75899	22.55043	-195.84467	-245.15770	22.53518	353.53326	262.01904	27.09143	240.59424	-73.91344	806.19293	-346.09375	-157.26492	548.15674	-310.21289	-2.63680	550.86768	-332.48505	-42.74226	559.22864	565.70471	104.65390	557.99341	547.19122	
5259	52.580	-256.14563	16.62871	-141.17798	208.99754	23.54280	-195.78709	-245.52708	21.59148	354.19107	261.89584	27.18977	240.43878	-73.88807	806.56659	-345.42133	-157.37317	548.74341	-309.98538	-2.44214	551.79974	-332.00394	-42.79051	558.78644	566.22992	104.73098	557.73450	547.87756	
5260	52.590	-256.14093	16.82916	-141.12207	208.84964	24.24084	-194.65543	-245.85294	21.30079	353.57596	261.84247	27.29078	240.53157	-75.29745	807.95831	-344.45163	-156.90193	549.17468	-309.44095	-2.11968	552.67853	-331.66769	-42.52627	558.90808	566.51453	105.09624	557.90906	548.30054	
5261	52.600	-256.45361	16.99836	-141.02466	207.99379	24.50528	-194.97388	-245.28320	21.86673	353.69208	261.55649	27.28637	240.43779	-75.63046	808.88940	-343.79330	-157.21004	549.80774	-309.29517	-2.16371	553.21082	-331.24692	-42.03572	559.60553	566.83148	105.56107	558.73077	548.55261	
5262	52.610	-256.53799	16.95032	-141.02779	207.76895	24.81401	-194.65948	-244.98755	22.05449	353.63596	261.71130	27.36926	240.45700	-75.56622	809.40155	-343.45590	-157.30582	549.97986	-308.88849	-2.25055	553.66486	-331.03546	-40.51323	559.68176	566.93213	105.94600	559.49756	548.71887	
5263	52.620	-256.51782	16.93443	-141.02582	207.77831	24.69987	-194.74608	-244.96005	22.16451	353.59515	262.09155	27.46919	240.41161	-75.64940	809.22974	-343.50516	-157.17047	550.18768	-308.65179	-2.31412	553.93256	-330.88321	-40.07187	560.20221	566.99585	106.36561	560.06207	548.72186	
5264	52.630	-256.48447	16.96760	-141.01196	208.16518	25.38867	-194.75069	-244.85255	22.15354	353.52756	262.29501	27.53669	240.47845	-75.89670	809.10675	-343.57278	-156.91402	550.39490	-308.28769	-2.26339	554.07568	-330.72253	-39.62240	560.79675	567.18396	106.89948	560.82104	548.88672	
5265	52.640	-256.49939	16.94867	-140.99924	207.61810	24.58256	-194.75555	-244.84720	22.17343	353.49643	262.30798	27.53786	240.39767	-75.86917	808.98987	-343.62051	-156.75488	550.41479	-308.23404	-2.06268	554.09052	-330.63574	-38.77940	561.45746	567.35870	107.28947	561.28845	548.96613	
5266	52.650	-256.46442	16.93604	-140.97314	207.78528	24.44019	-194.80881	-244.89455	22.14784	353.47684	262.36707	27.47030	240.40862	-75.62457	808.88318	-343.78720	-156.50447	550.36768	-308.20987	-1.75708	554.02710	-330.55978	-38.46294	562.00671	567.45288	107.71584	562.07367	548.94196	
5267	52.660	-256.45227	16.91773	-140.99696	207.89671	24.35227	-194.78096	-244.91370	22.16150	353.41226	262.26721	27.30914	240.20462	-75.31631	808.77814	-343.99026	-156.03300	550.34344	-308.10925	-1.45892	553.85760	-330.65121	-38.33404	562.45453	567.40375	108.21614	562.48071	548.90253	
5268	52.670	-256.46741	16.93807	-141.02661	207.85727	24.22335	-194.83127	-244.92502	22.26607	353.36151	262.30301	27.36311	240.18867	-74.80800	808.68671	-344.16064	-155.77232	550.22601	-308.15991	-1.13202	553.61835	-330.76682	-37.30725	562.67133	567.18787	108.41212	562.67316	548.87885	
5269	52.680	-256.46619	16.97232	-141.02284	208.03799	24.14066	-194.68155	-244.91988	22.26564	353.35114	262.35699	27.38653	240.26654	-73.84039	808.44427	-344.44135	-156.02202	550.60632	-308.89127	-0.83774	553.54700	-330.88754	-37.20808	562.91510	567.07660	108.58797	562.76770	548.76038	
5270	52.690	-256.36679	17.00383	-141.00562	207.87035	24.18251	-194.76305	-244.93634	22.24250	353.30719	262.29688	27.19310	240.14445	-73.50245	808.43585	-344.61176	-155.62686	550.56915	-309.16226	-0.20391	553.36487	-331.04617	-37.61255	563.31146	567.13342	109.07314	562.81732	548.59497	
5271	52.700	-256.28915	17.00634	-140.98894	208.14650	23.93377	-194.59406	-244.89590	22.20265	353.31201	262.36969	27.10063	240.12373	-72.82523	808.44812	-344.80869	-154.26712	549.96436	-308.81207	0.46039	553.28418	-331.27383	-37.06762	563.43054	566.96350	109.61716	562.88275	548.42096	
5272	52.710	-256.20099	17.07217	-140.96516	208.30157	23.79689	-194.52251	-244.85390	22.21728	353.30539	262.66898	27.10679	240.17514	-72.14366	808.45532	-345.20349	-153.73988	549.89642	-308.87585	0.99463	553.25568	-331.46545	-36.47794	563.53583	566.73474	110.11984	562.96228	548.20410	
5273	52.720	-256.20554	17.09107	-140.98653	208.28664	23.79300	-194.48409	-244.92599	22.24875	353.27667	262.61069	26.98505	240.18906	-71.38854	808.35150	-345.44830	-153.14465	549.76062	-309.14648	1.45664	553.15808	-331.67355	-36.30677	563.55359	566.50684	110.41811	563.09027	548.01398	
5274	52.730	-256.14240	17.08151	-141.02809	208.17897	23.91344	-194.56194	-244.88106	22.21235	353.23950	262.79971	27.07177	240.26135	-70.82956	808.28082	-345.77853	-152.27187	549.58795	-309.61801	2.24988	553.11572	-331.99347	-36.22627	563.68665	566.25641	110.77586	563.33362	547.84851	
5275	52.740	-256.11542	17.12218	-141.07881	208.41357	23.68466	-194.53317	-244.89351	22.17895	353.12253	262.81628	27.02207	240.20648	-70.21007	808.10034	-346.26987	-151.64705	549.43353	-310.01257	3.09588	553.01904	-332.31311	-36.02566	563.82843	565.92358	111.02139	563.56317	547.69452	
5276	52.750	-256.06845	17.25429	-141.16341	208.28445	23.79173	-194.58025	-244.88464	22.17882	353.10837	262.74106	27.03007	240.26022	-69.70267	807.98621	-346.69714	-150.94797	549.43268	-310.39111	3.89247	552.99280	-332.46021	-35.82903	564.14502	565.52728	111.28962	563.80951	547.44849	
5277	52.760	-255.92274	17.37836	-141.22060	208.31001	23.81434	-194.56390	-244.95403	22.27694	353.01819	262.83350	27.00233	240.22392	-68.79723	807.83948	-346.98175	-150.06168	549.35083	-310.79776	4.53174	553.09686	-332.90479	-35.40508	564.27234	565.23737	111.50330	564.00635	547.07660	
5278	52.770	-255.95140	17.50908	-141.25993	208.29657	23.80700	-194.54720	-244.92146	22.37833	352.91379	262.72495	26.89725	240.18779	-68.22968	807.83990	-347.67801	-149.37419	549.23096	-311.26605	5.27099	553.05811	-333.35202	-34.98105	564.55377	564.75861	111.81556	564.34888	546.57251	
5279	52.780	-255.81265	17.49411	-141.38010	208.40613	23.76052	-194.61996	-244.89436	22.46251	352.73282	262.80234	26.83142	240.16335	-67.92625	807.85468	-348.26373	-148.72253	549.04889	-311.76846	6.03734	552.98431	-333.69907	-34.70970	564.77802	564.35681	112.17750	564.71399	546.07617	
5280	52.790	-255.70355	17.44011	-141.47986	208.45966	23.70212	-194.67265	-244.92166	22.46852	352.52124	262.81512	26.71224	240.10698	-67.55405	807.77124	-348.77341	-148.26897	549.18524	-313.08408	6.95349	552.85223	-334.23001	-34.46104	564.81061	563.95673	112.69559	564.98138	545.79065	
5281	52.800	-255.65421	17.51028	-141.52515	208.47931	23.70682	-194.72964	-244.95088	22.48016	352.50992	262.73538	26.59579	240.01408	-67.00982	807.81689	-349.52145	-147.04198	548.59814	-312.59979	7.45435	552.93280	-334.76056	-34.12174	565.00696	563.43481	113.08324	565.22101	545.46094	
5282	52.810	-255.65739	17.53140	-141.53426	208.50293	23.76328	-194.65854	-244.88316	22.55812	352.43134	262.79984	26.52604	239.98766	-66.43480	807.84082	-349.96921	-146.20737	548.56757	-313.16290	8.12568	552.93469	-335.14090	-33.42275	565.18134	562.99487	113.54947	565.51495	544.97589	
5283	52.820	-255.71725	17.73937	-141.51340	208.48714	23.75714	-194.67760	-244.83842	22.66986	352.42603	262.86996	26.58181	240.01500	-65.83385	807.78058	-350.35187	-145.73318	548.70752	-313.74988	8.96758	553.07471	-335.73538	-32.89800	565.32269	562.46179	114.32666	565.75366	544.37061	
5284	52.830	-255.76291	17.85787	-141.59323	208.49615	23.69175	-194.75206	-244.82330	22.76423	352.45840	262.77518	26.52015	239.95187	-65.38001	807.85638	-350.98135	-145.00099	548.73462	-314.48291	9.56735	553.21631	-336.18625	-32.37015	565.51862	561.91058	114.97354	565.94043	543.91284	
5285	52.840	-255.61859	17.85101	-141.65450	208.65852	23.60777	-194.78357	-244.77748	22.69377	352.32455	262.94537	26.57364	239.96661	-64.79452	807.84778	-351.52371	-144.29752	548.67603	-315.00244	10.18717	553.33905	-336.58682	-31.65732	565.53705	561.35571	115.37060	566.22162	543.35022	
